<svg width="30" height="30" viewBox="0 0 30 30" fill="none" xmlns="http://www.w3.org/2000/svg">
<rect width="30" height="30" rx="15" fill="#E02A81"/>
<path d="M14.9939 11.8878C15.5602 11.8878 16.0819 12.0293 16.5592 12.3124C17.0364 12.5875 17.4125 12.9636 17.6876 13.4408C17.9707 13.9181 18.1122 14.4398 18.1122 15.0061C18.1122 15.5642 17.9707 16.0819 17.6876 16.5592C17.4125 17.0364 17.0364 17.4166 16.5592 17.6997C16.0819 17.9747 15.5602 18.1122 14.9939 18.1122C14.4358 18.1122 13.9141 17.9747 13.4287 17.6997C12.9515 17.4166 12.5713 17.0364 12.2882 16.5592C12.0131 16.0819 11.8756 15.5642 11.8756 15.0061C11.8756 14.4398 12.0172 13.9181 12.3003 13.4408C12.5834 12.9636 12.9636 12.5875 13.4408 12.3124C13.9181 12.0293 14.4358 11.8878 14.9939 11.8878ZM14.9939 16.9232C15.3418 16.9232 15.6613 16.8382 15.9525 16.6684C16.2518 16.4904 16.4864 16.2558 16.6562 15.9646C16.8342 15.6653 16.9232 15.3418 16.9232 14.9939C16.9232 14.6461 16.8342 14.3266 16.6562 14.0354C16.4864 13.7442 16.2518 13.5136 15.9525 13.3438C15.6613 13.1658 15.3418 13.0768 14.9939 13.0768C14.6461 13.0768 14.3225 13.1658 14.0233 13.3438C13.7321 13.5136 13.4975 13.7442 13.3195 14.0354C13.1496 14.3266 13.0647 14.6461 13.0647 14.9939C13.0647 15.3418 13.1496 15.6653 13.3195 15.9646C13.4975 16.2558 13.7321 16.4904 14.0233 16.6684C14.3225 16.8382 14.6461 16.9232 14.9939 16.9232ZM17.542 9C18.1648 9 18.7472 9.15773 19.2892 9.4732C19.8069 9.78059 20.2194 10.1931 20.5268 10.7108C20.8423 11.2528 21 11.8352 21 12.458V17.542C21 18.1648 20.8423 18.7472 20.5268 19.2892C20.2194 19.8069 19.8069 20.2194 19.2892 20.5268C18.7472 20.8423 18.1648 21 17.542 21H12.4459C11.8231 21 11.2447 20.8423 10.7108 20.5268C10.185 20.2194 9.76845 19.7988 9.46107 19.2649C9.15369 18.7391 9 18.1648 9 17.542V12.458C9 11.8352 9.15369 11.2609 9.46107 10.7351C9.76845 10.2012 10.185 9.78059 10.7108 9.4732C11.2447 9.15773 11.8231 9 12.4459 9H17.542ZM19.8109 17.542V12.458C19.8109 12.0455 19.7098 11.6653 19.5076 11.3175C19.3054 10.9697 19.0303 10.6946 18.6825 10.4924C18.3347 10.2902 17.9545 10.1891 17.542 10.1891H12.4459C12.0334 10.1891 11.6532 10.2902 11.3054 10.4924C10.9656 10.6946 10.6946 10.9697 10.4924 11.3175C10.2902 11.6653 10.1891 12.0455 10.1891 12.458V17.542C10.1891 17.9545 10.2902 18.3347 10.4924 18.6825C10.6946 19.0303 10.9656 19.3054 11.3054 19.5076C11.6532 19.7098 12.0334 19.8109 12.4459 19.8109H17.542C17.9545 19.8109 18.3347 19.7098 18.6825 19.5076C19.0303 19.3054 19.3054 19.0303 19.5076 18.6825C19.7098 18.3347 19.8109 17.9545 19.8109 17.542ZM18.1608 10.9778C18.3873 10.9778 18.5774 11.0586 18.731 11.2204C18.8928 11.3822 18.9737 11.5763 18.9737 11.8028C18.9737 12.0293 18.8928 12.2235 18.731 12.3852C18.5774 12.5389 18.3873 12.6158 18.1608 12.6158C17.9343 12.6158 17.7401 12.5389 17.5784 12.3852C17.4166 12.2235 17.3357 12.0293 17.3357 11.8028C17.3357 11.5763 17.4166 11.3822 17.5784 11.2204C17.7401 11.0586 17.9343 10.9778 18.1608 10.9778Z" fill="white"/>
</svg>
