<svg width="30" height="30" viewBox="0 0 30 30" fill="none" xmlns="http://www.w3.org/2000/svg">
<rect width="30" height="30" rx="15" fill="#2AA8E0"/>
<path d="M21.264 11.176C20.9187 11.6893 20.4987 12.1233 20.004 12.478V12.814C20.004 13.6633 19.85 14.5033 19.542 15.334C19.2153 16.1927 18.758 16.958 18.17 17.63C17.5353 18.3487 16.7887 18.9087 15.93 19.31C14.9967 19.7393 13.9747 19.954 12.864 19.954C11.4547 19.954 10.1667 19.5807 9 18.834H9.042C9.294 18.8527 9.48067 18.862 9.602 18.862C10.1807 18.862 10.736 18.7687 11.268 18.582C11.8093 18.3953 12.2947 18.1293 12.724 17.784C12.1827 17.7747 11.6973 17.6113 11.268 17.294C10.8387 16.9673 10.5447 16.552 10.386 16.048C10.526 16.076 10.68 16.09 10.848 16.09C11.0907 16.09 11.3147 16.062 11.52 16.006C10.932 15.8847 10.4467 15.5953 10.064 15.138C9.69067 14.6807 9.504 14.1487 9.504 13.542V13.5C9.84933 13.7053 10.2273 13.8127 10.638 13.822C10.2927 13.5887 10.0173 13.29 9.812 12.926C9.616 12.5527 9.518 12.1513 9.518 11.722C9.518 11.2833 9.63 10.8633 9.854 10.462C10.4887 11.2367 11.2493 11.8527 12.136 12.31C13.0413 12.7767 14.0073 13.038 15.034 13.094C14.9967 12.9353 14.978 12.744 14.978 12.52C14.978 12.0627 15.09 11.6427 15.314 11.26C15.538 10.8773 15.8413 10.574 16.224 10.35C16.6067 10.1167 17.0267 10 17.484 10C17.8387 10 18.1747 10.07 18.492 10.21C18.8187 10.35 19.094 10.546 19.318 10.798C19.906 10.686 20.438 10.4807 20.914 10.182C20.8207 10.4807 20.676 10.7513 20.48 10.994C20.2933 11.2367 20.0693 11.4327 19.808 11.582C20.34 11.5073 20.8253 11.372 21.264 11.176Z" fill="white"/>
</svg>
